<?xml version="1.0" encoding="utf-8"?>
<!DOCTYPE svg PUBLIC "-//W3C//DTD SVG 1.1//EN" "http://www.w3.org/Graphics/SVG/1.1/DTD/svg11.dtd">
<svg version="1.1" id="Layer_1" xmlns="http://www.w3.org/2000/svg" xmlns:xlink="http://www.w3.org/1999/xlink" x="0px" y="0px"
	 width="37px" height="37px" viewBox="0 0 36.5 36.5" enable-background="new 0 0 36.5 36.5" xml:space="preserve">
	<circle fill="none" stroke="#FFFFFF" stroke-width="0.5" stroke-miterlimit="10" cx="18.25" cy="18.25" r="18"/>

<g>
	<path fill="#FFFFFF" d="M27.517,22.92c-1.586,3.034-5.949,3.33-9.074,3.33c-3.173,0-7.801-0.261-9.447-3.33
		c-0.613-1.147-0.745-2.5-0.745-3.761c0-1.659,0.481-3.228,1.635-4.5c-0.216-0.625-0.325-1.284-0.325-1.932
		c0-0.852,0.205-1.704,0.613-2.477c1.899,0,3.113,0.784,4.556,1.852c1.214-0.273,2.464-0.397,3.714-0.397
		c1.13,0,2.271,0.114,3.365,0.363c1.43-1.057,2.645-1.818,4.52-1.818c0.408,0.773,0.613,1.625,0.613,2.477
		c0,0.648-0.108,1.295-0.325,1.909c1.154,1.284,1.635,2.864,1.635,4.523C28.25,20.421,28.118,21.761,27.517,22.92z M22.481,17.886
		c-0.793,0-1.551,0.137-2.344,0.239c-0.625,0.091-1.25,0.125-1.887,0.125s-1.262-0.034-1.887-0.125
		c-0.781-0.102-1.55-0.239-2.344-0.239c-1.959,0-3.077,1.534-3.077,3.273c0,3.478,3.365,4.012,6.298,4.012h2.02
		c2.933,0,6.298-0.534,6.298-4.012C25.558,19.42,24.44,17.886,22.481,17.886z M14.404,23.341c-1.082,0-1.539-1.353-1.539-2.182
		c0-0.83,0.457-2.182,1.539-2.182s1.539,1.353,1.539,2.182C15.942,21.988,15.485,23.341,14.404,23.341z M22.096,23.341
		c-1.082,0-1.539-1.353-1.539-2.182c0-0.83,0.457-2.182,1.539-2.182s1.539,1.353,1.539,2.182
		C23.635,21.988,23.178,23.341,22.096,23.341z"/>
</g>
</svg>
