<?xml version="1.0" encoding="utf-8"?>
<!-- Generator: Adobe Illustrator 16.0.0, SVG Export Plug-In . SVG Version: 6.00 Build 0)  -->
<!DOCTYPE svg PUBLIC "-//W3C//DTD SVG 1.1//EN" "http://www.w3.org/Graphics/SVG/1.1/DTD/svg11.dtd">
<svg version="1.1" id="Layer_1" xmlns="http://www.w3.org/2000/svg" xmlns:xlink="http://www.w3.org/1999/xlink" x="0px" y="0px"
	 width="36.5px" height="36.5px" viewBox="0 0 37 37" enable-background="new 0 0 36.5 36.5" xml:space="preserve">
<circle fill="none" stroke="#FFFFFF" stroke-width="0.5" stroke-miterlimit="10" cx="18.25" cy="18.25" r="18"/>
<g>
	<path fill="#FFFFFF" d="M12.406,12.978h-0.023c-1.301,0-2.133-0.828-2.133-1.864c0-1.057,0.867-1.864,2.18-1.864
		c1.324,0,2.145,0.807,2.156,1.864C14.598,12.149,13.754,12.978,12.406,12.978z M14.34,25.25h-3.867V14.449h3.867V25.25z
		 M28.25,25.25h-3.855v-5.776c0-1.45-0.563-2.441-1.957-2.441c-1.066,0-1.699,0.665-1.98,1.308c-0.094,0.24-0.129,0.556-0.129,0.883
		v6.027h-3.855c0.047-9.788,0-10.801,0-10.801h3.855v1.57h-0.023c0.504-0.741,1.418-1.82,3.504-1.82
		c2.543,0,4.441,1.548,4.441,4.861V25.25z"/>
</g>
</svg>
