<?xml version="1.0" encoding="utf-8"?>
<!-- Generator: Adobe Illustrator 16.0.0, SVG Export Plug-In . SVG Version: 6.00 Build 0)  -->
<!DOCTYPE svg PUBLIC "-//W3C//DTD SVG 1.1//EN" "http://www.w3.org/Graphics/SVG/1.1/DTD/svg11.dtd">
<svg version="1.1" id="Layer_1" xmlns="http://www.w3.org/2000/svg" xmlns:xlink="http://www.w3.org/1999/xlink" x="0px" y="0px"
	 width="36.5px" height="36.5px" viewBox="0 0 37 37" enable-background="new 0 0 36.5 36.5" xml:space="preserve">
<circle fill="none" stroke="#FFFFFF" stroke-width="0.5" stroke-miterlimit="10" cx="18.25" cy="18.25" r="18"/>
<g>
	<path fill="#FFFFFF" d="M27.922,16.178c-2.323,3.061-2.575,2.776-0.659,4.543c1.844,1.696,2.227,2.515,2.287,2.622
		c0,0,0.767,1.329-0.85,1.341l-3.065,0.047c-0.659,0.13-1.533-0.463-1.533-0.463c-1.149-0.783-2.227-2.812-3.065-2.55
		c0,0-0.862,0.273-0.838,2.1c0.012,0.392-0.18,0.605-0.18,0.605s-0.215,0.226-0.634,0.261h-1.377c-3.029,0.189-5.7-2.574-5.7-2.574
		s-2.922-2.99-5.485-8.957c-0.167-0.392,0.012-0.581,0.012-0.581s0.18-0.226,0.683-0.226l3.281-0.023
		c0.312,0.047,0.527,0.213,0.527,0.213s0.192,0.13,0.288,0.379c0.539,1.329,1.233,2.539,1.233,2.539
		c1.198,2.444,2.012,2.859,2.479,2.61c0,0,0.611-0.368,0.479-3.322c-0.048-1.068-0.347-1.554-0.347-1.554
		c-0.276-0.368-0.791-0.475-1.018-0.51c-0.18-0.023,0.12-0.451,0.515-0.641c0.587-0.285,1.629-0.296,2.862-0.285
		c0.97,0.012,1.245,0.071,1.617,0.154c1.138,0.273,0.754,1.317,0.754,3.832c0,0.807-0.156,1.934,0.431,2.301
		c0.251,0.166,0.874,0.024,2.407-2.563c0,0,0.719-1.234,1.281-2.669c0.096-0.261,0.299-0.368,0.299-0.368s0.192-0.106,0.455-0.071
		l3.449-0.024c1.042-0.13,1.209,0.344,1.209,0.344C29.897,13.176,29.335,14.315,27.922,16.178z"/>
</g>
</svg>
