<svg xmlns="http://www.w3.org/2000/svg" xmlns:xlink="http://www.w3.org/1999/xlink" version="1.1" x="0px" y="0px" viewBox="0 0 100 125" style="enable-background:new 0 0 100 100;" xml:space="preserve">
	<g>
		<path class="st0" d="M80.9,37.9l-22.3,14c-0.3,0.3-0.8,0.5-1.2,0.5c-0.4,0-0.9-0.2-1.2-0.5l-22.3-14c-0.7-0.7-0.7-1.8,0-2.5   c0.7-0.7,1.8-0.7,2.5,0l21.1,13.2l21.1-13.2c0.7-0.7,1.8-0.7,2.5,0C81.6,36.1,81.6,37.2,80.9,37.9z"/>
		<path class="st0" d="M29.6,51c0,0.9-0.7,1.6-1.6,1.6H14.6c-0.9,0-1.6-0.7-1.6-1.6l0,0c0-0.9,0.7-1.6,1.6-1.6H28   C28.9,49.5,29.6,50.2,29.6,51L29.6,51z"/>
		<path class="st0" d="M42.2,61.1c0,0.9-0.7,1.6-1.6,1.6H14.6c-0.9,0-1.6-0.7-1.6-1.6l0,0c0-0.9,0.7-1.6,1.6-1.6h26.1   C41.5,59.5,42.2,60.2,42.2,61.1L42.2,61.1z"/>
		<path class="st0" d="M42.2,71.1c0,0.9-0.7,1.6-1.6,1.6H14.6c-0.9,0-1.6-0.7-1.6-1.6l0,0c0-0.9,0.7-1.6,1.6-1.6h26.1   C41.5,69.6,42.2,70.3,42.2,71.1L42.2,71.1z"/>
		<path class="st0" d="M81.4,27.3H33.2c-3.1,0-5.5,2.5-5.5,5.5v0.5c0,0.9,0.7,1.6,1.6,1.6h0c0.9,0,1.6-0.7,1.6-1.6v-0.5   c0-1.3,1.1-2.4,2.4-2.4h48.2c1.3,0,2.4,1.1,2.4,2.4v34.3c0,1.3-1.1,2.4-2.4,2.4h-26c-0.9,0-1.6,0.7-1.6,1.6v0   c0,0.9,0.7,1.6,1.6,1.6h26c3.1,0,5.5-2.5,5.5-5.5V32.8C86.9,29.8,84.5,27.3,81.4,27.3z"/>
	</g>
</svg>